<?xml version="1.0" standalone="no"?>
<!DOCTYPE svg PUBLIC "-//W3C//DTD SVG 20010904//EN"
 "http://www.w3.org/TR/2001/REC-SVG-20010904/DTD/svg10.dtd">
<svg version="1.0" xmlns="http://www.w3.org/2000/svg"
 width="980.000000pt" height="676.000000pt" viewBox="0 0 980.000000 676.000000"
 preserveAspectRatio="xMidYMid meet">

<g transform="translate(0.000000,676.000000) scale(0.100000,-0.100000)"
fill="#ffffff" stroke="none">
<path d="M2920 6731 c-437 -58 -841 -159 -1010 -253 -162 -90 -397 -314 -566
-539 -327 -434 -775 -1523 -1004 -2438 -148 -593 -264 -1305 -325 -2001 -40
-458 -4 -654 166 -916 157 -241 376 -410 660 -509 137 -48 208 -62 359 -70
247 -13 418 22 656 134 337 160 549 380 1164 1211 501 677 525 704 710 799
319 164 823 246 1355 220 464 -23 833 -117 1083 -276 113 -72 119 -81 753
-934 546 -736 782 -947 1234 -1105 l110 -39 210 -3 c298 -5 417 19 636 128
142 71 238 140 344 245 225 224 345 505 345 806 0 193 -50 700 -111 1119 -144
1000 -374 1832 -752 2725 -93 218 -253 542 -345 696 -200 334 -526 667 -757
774 -191 88 -512 166 -890 216 -139 19 -218 23 -430 24 -233 0 -272 -2 -375
-23 -204 -42 -339 -108 -451 -222 -80 -82 -142 -188 -213 -363 l-62 -152 -54
-9 c-71 -11 -849 -11 -919 0 l-54 9 -56 135 c-89 211 -125 272 -216 369 -132
141 -333 225 -595 250 -252 24 -372 22 -600 -8z m527 -562 c102 -13 204 -44
237 -70 29 -22 68 -95 141 -261 112 -251 224 -366 402 -413 174 -46 1173 -46
1346 0 89 23 156 62 222 129 69 70 112 141 186 305 105 233 136 266 281 298
97 21 378 21 553 -1 257 -32 589 -103 728 -156 313 -119 616 -579 971 -1473
195 -489 347 -978 440 -1407 140 -644 266 -1558 266 -1920 0 -125 -24 -204
-91 -304 -126 -189 -324 -301 -554 -313 -249 -14 -466 88 -711 331 -135 135
-257 289 -665 841 -474 640 -489 658 -631 765 -280 212 -751 375 -1180 409
-341 27 -880 20 -1117 -15 -411 -60 -821 -219 -1063 -412 -115 -92 -170 -157
-412 -483 -125 -167 -300 -403 -390 -524 -356 -478 -505 -644 -687 -764 -169
-112 -326 -158 -499 -148 -183 10 -333 78 -466 211 -64 64 -90 100 -125 170
-44 89 -44 90 -48 215 -11 399 156 1535 324 2196 212 837 622 1826 937 2263
219 303 366 382 888 477 342 62 547 77 717 54z"/>
<path d="M6767 5350 c-243 -41 -409 -301 -353 -553 45 -199 239 -357 441 -357
71 0 130 16 212 56 97 48 144 91 186 171 89 172 89 294 0 466 -59 112 -157
182 -298 212 -76 16 -115 17 -188 5z m169 -299 c59 -27 84 -69 84 -146 0 -81
-22 -124 -80 -153 -86 -44 -189 -11 -230 74 -43 87 -17 168 71 222 59 36 78
37 155 3z"/>
<path d="M2483 5210 c-54 -11 -90 -35 -110 -74 -14 -25 -17 -76 -21 -277 -3
-136 -7 -251 -11 -257 -3 -6 -112 -14 -261 -19 -323 -12 -330 -14 -350 -141
-6 -31 -10 -181 -11 -333 -1 -297 1 -308 53 -356 40 -38 76 -44 297 -49 119
-3 230 -7 247 -10 l31 -4 6 -243 c4 -133 9 -254 13 -269 10 -43 50 -76 107
-88 34 -8 154 -10 352 -8 264 3 304 5 332 21 60 32 65 56 75 332 6 137 12 252
15 255 2 3 111 8 241 12 255 7 302 15 334 58 30 42 41 169 36 443 -5 287 -12
318 -68 351 -32 19 -54 21 -292 24 l-258 3 0 137 c-1 206 -15 384 -34 420 -22
42 -61 61 -149 72 -88 11 -516 11 -574 0z m459 -549 c3 -244 4 -261 24 -287
51 -69 49 -69 335 -72 l259 -3 0 -149 0 -148 -252 -4 c-231 -3 -256 -5 -287
-23 -19 -11 -43 -33 -55 -48 -20 -27 -21 -42 -24 -288 l-3 -259 -148 0 -148 0
-7 257 c-5 181 -12 265 -21 283 -7 14 -33 36 -57 50 -42 24 -48 25 -295 28
l-253 4 0 148 0 149 263 3 c373 4 353 -16 363 367 l7 251 148 0 148 0 3 -259z"/>
<path d="M5962 4589 c-219 -37 -382 -275 -344 -503 6 -37 24 -97 41 -132 37
-78 127 -177 193 -210 319 -162 674 58 670 416 -2 300 -241 482 -560 429z
m190 -295 c76 -39 107 -144 66 -224 -91 -177 -361 -67 -309 126 27 99 145 147
243 98z"/>
<path d="M7480 4584 c-137 -37 -256 -159 -302 -307 -16 -54 -20 -87 -16 -161
3 -83 8 -102 41 -169 157 -317 596 -347 790 -54 178 268 28 638 -283 697 -73
14 -165 11 -230 -6z m188 -279 c74 -32 112 -86 112 -163 0 -83 -60 -150 -144
-159 -166 -19 -257 167 -139 282 54 53 109 65 171 40z"/>
<path d="M6735 3836 c-180 -57 -303 -198 -324 -371 -19 -160 30 -307 137 -407
85 -80 186 -118 313 -118 226 0 409 152 450 375 19 102 -7 232 -64 321 -28 45
-106 120 -157 151 -95 58 -257 80 -355 49z m213 -303 c47 -35 65 -70 70 -131
9 -125 -81 -203 -197 -172 -152 41 -178 234 -41 308 54 28 126 26 168 -5z"/>
</g>
</svg>
