<svg xmlns="http://www.w3.org/2000/svg" viewBox="0 0 22 22"><path d="m13.555 1043.83h-.927v-2.473c0-.68-.556-1.236-1.236-1.236h-2.472v-.927c0-.865-.68-1.545-1.545-1.545-.865 0-1.545.68-1.545 1.545v.927h-2.472c-.68 0-1.236.556-1.236 1.236v2.349h.927c.927 0 1.669.742 1.669 1.669 0 .927-.742 1.669-1.669 1.669h-.927v2.349c0 .68.556 1.236 1.236 1.236h2.349v-.927c0-.927.742-1.669 1.669-1.669.927 0 1.669.742 1.669 1.669v.927h2.349c.68 0 1.236-.556 1.236-1.236v-2.472h.927c.865 0 1.545-.68 1.545-1.545 0-.865-.68-1.545-1.545-1.545" fill="#f1f1f1" transform="matrix(1.23265 0 0 1.23264.397-1276.05)"/></svg>