
<?xml version="1.0" encoding="iso-8859-1"?>
<!-- Generator: Adobe Illustrator 19.0.0, SVG Export Plug-In . SVG Version: 6.00 Build 0)  -->
<svg version="1.1" id="Layer_1" xmlns="http://www.w3.org/2000/svg" xmlns:xlink="http://www.w3.org/1999/xlink" x="0px" y="0px"
	 viewBox="0 0 330 330" style="enable-background:new 0 0 330 330;" xml:space="preserve">
<g id="XMLID_815_">
	<path id="XMLID_816_" d="M315,120h-22.688c-1.588-4.488-3.416-8.893-5.476-13.196l16.05-16.05
		c5.858-5.857,5.858-15.355,0.001-21.213L260.46,27.114c-2.813-2.813-6.628-4.394-10.607-4.394c-3.978,0-7.793,1.58-10.606,4.394
		l-16.051,16.05c-4.303-2.06-8.708-3.888-13.196-5.476V15c0-8.284-6.716-15-15-15h-60c-8.284,0-15,6.716-15,15v22.689
		c-4.488,1.588-8.893,3.416-13.195,5.476l-16.051-16.05c-5.858-5.858-15.355-5.858-21.213,0L27.114,69.54
		c-2.813,2.813-4.394,6.628-4.394,10.607c0,3.978,1.58,7.793,4.394,10.606l16.05,16.051c-2.06,4.303-3.887,8.708-5.476,13.196H15
		c-8.284,0-15,6.716-15,15v60c0,8.284,6.716,15,15,15h22.689c1.588,4.488,3.415,8.893,5.476,13.196l-16.05,16.051
		c-2.814,2.813-4.394,6.628-4.394,10.606c0,3.979,1.581,7.794,4.394,10.607l42.428,42.426c5.858,5.857,15.355,5.857,21.213,0
		l16.051-16.05c4.302,2.06,8.707,3.888,13.194,5.476V315c0,8.284,6.716,15,15,15h60c8.284,0,15-6.716,15-15v-22.689
		c4.488-1.588,8.893-3.416,13.196-5.476l16.051,16.05c5.858,5.857,15.355,5.858,21.213,0l42.426-42.426
		c5.858-5.858,5.858-15.355,0-21.213l-16.05-16.05c2.061-4.303,3.889-8.709,5.476-13.196H315c8.284,0,15-6.716,15-15v-60
		C330,126.716,323.284,120,315,120z M300,180h-18.781c-6.845,0-12.822,4.634-14.527,11.263c-2.435,9.471-6.213,18.574-11.227,27.059
		c-3.482,5.893-2.533,13.397,2.308,18.237l13.293,13.294l-21.212,21.213l-13.294-13.293c-4.841-4.839-12.344-5.789-18.236-2.308
		c-8.482,5.011-17.587,8.789-27.063,11.228c-6.628,1.706-11.261,7.682-11.261,14.526V300h-30v-18.781
		c0-6.844-4.633-12.82-11.261-14.526c-9.473-2.439-18.578-6.216-27.061-11.228c-5.893-3.481-13.396-2.533-18.236,2.308
		l-13.294,13.293l-21.214-21.213l13.293-13.293c4.84-4.84,5.79-12.343,2.308-18.236c-5.012-8.482-8.789-17.587-11.228-27.062
		C61.602,184.633,55.625,180,48.781,180H30v-30h18.781c6.844,0,12.82-4.633,14.526-11.261c2.439-9.475,6.217-18.58,11.228-27.062
		c3.482-5.893,2.532-13.396-2.308-18.236L58.934,80.147l21.213-21.213l13.294,13.293c4.84,4.841,12.344,5.791,18.237,2.308
		c8.482-5.011,17.586-8.789,27.061-11.228C145.367,61.601,150,55.625,150,48.781V30h30v18.781c0,6.844,4.633,12.82,11.261,14.526
		c9.476,2.439,18.581,6.217,27.062,11.228c5.892,3.482,13.397,2.533,18.237-2.308l13.294-13.293l21.212,21.213l-13.293,13.294
		c-4.841,4.84-5.79,12.344-2.308,18.237c5.014,8.484,8.791,17.588,11.227,27.059c1.705,6.629,7.682,11.263,14.527,11.263H300V180z"
		/>
	<path id="XMLID_819_" d="M165,105c-33.084,0-60,26.916-60,60s26.916,60,60,60s60-26.916,60-60S198.084,105,165,105z M165,195
		c-16.542,0-30-13.458-30-30s13.458-30,30-30s30,13.458,30,30S181.542,195,165,195z"/>
</g>
<g>
</g>
<g>
</g>
<g>
</g>
<g>
</g>
<g>
</g>
<g>
</g>
<g>
</g>
<g>
</g>
<g>
</g>
<g>
</g>
<g>
</g>
<g>
</g>
<g>
</g>
<g>
</g>
<g>
</g>
</svg>
