<?xml version="1.0" encoding="UTF-8" standalone="no"?> <svg id="Layer_1" data-name="Layer 1" xmlns="http://www.w3.org/2000/svg" viewBox="0 0 128 128"><defs><style>.cls-1{fill:#ffffff;}.cls-2{fill:#cccccc;}</style></defs><title>b</title><path class="cls-1" d="M28.628,72.11907A17.97418,17.97418,0,0,1,6.59139,80.13388v38.54969a2.49475,2.49475,0,0,0,2.49111,2.49111H26.35031a2.49477,2.49477,0,0,0,2.49109-2.49111v-46.51A.11355.11355,0,0,0,28.628,72.11907Z"/><path class="cls-1" d="M46.2281,42.16451,37.447,51.07585v67.60772a2.49475,2.49475,0,0,0,2.49111,2.49111H57.20588a2.49477,2.49477,0,0,0,2.49111-2.49111v-72.822L55.99432,42.156A18.13389,18.13389,0,0,1,46.2281,42.16451Z"/><path class="cls-1" d="M68.30258,67.084v51.59962a2.49474,2.49474,0,0,0,2.49109,2.49111H88.06148a2.49477,2.49477,0,0,0,2.49111-2.49111V68.02379a17.94923,17.94923,0,0,1-22.25-.93984Z"/><path class="cls-1" d="M110.14729,35.7358,99.15817,46.72493v71.95864a2.49474,2.49474,0,0,0,2.49109,2.49111h17.26781a2.49477,2.49477,0,0,0,2.49111-2.49111v-83.429a17.95629,17.95629,0,0,1-11.26088.48124Z"/><path class="cls-2" d="M115.045,6.82533a11.60217,11.60217,0,0,0-9.725,17.94326l-18.96395,18.964a11.5781,11.5781,0,0,0-12.86295.13029L60.81946,31.18721a11.61122,11.61122,0,1,0-19.45139-.00064L19.28566,53.59035A11.62772,11.62772,0,1,0,22.67974,56.984l22.082-22.40314a11.572,11.572,0,0,0,12.6643,0L70.16978,47.32633a11.61164,11.61164,0,1,0,19.58-.1997l18.9646-18.9646A11.60839,11.60839,0,1,0,115.045,6.82533Z"/></svg>